<svg aria-hidden="true" style="position: absolute; width: 0; height: 0; overflow: hidden;" version="1.1" xmlns="http://www.w3.org/2000/svg" xmlns:xlink="http://www.w3.org/1999/xlink">
<defs>
<symbol id="icon-email-black-18dp-1" viewBox="0 0 32 32">
<path d="M26.667 5.333h-21.333c-1.467 0-2.653 1.2-2.653 2.667l-0.013 16c0 1.467 1.2 2.667 2.667 2.667h21.333c1.467 0 2.667-1.2 2.667-2.667v-16c0-1.467-1.2-2.667-2.667-2.667zM26.133 11l-9.427 5.893c-0.427 0.267-0.987 0.267-1.413 0l-9.427-5.893c-0.333-0.213-0.533-0.573-0.533-0.96 0-0.893 0.973-1.427 1.733-0.96l8.933 5.587 8.933-5.587c0.76-0.467 1.733 0.067 1.733 0.96 0 0.387-0.2 0.747-0.533 0.96z"></path>
</symbol>
<symbol id="icon-location" viewBox="0 0 32 32">
<path d="M16.002 17.746c3.309 0 6-2.692 6-6s-2.691-6-6-6c-3.309 0-6 2.691-6 6s2.691 6 6 6zM16.002 6.746c2.758 0 5 2.242 5 5s-2.242 5-5 5c-2.758 0-5-2.242-5-5s2.242-5 5-5zM16 0c-6.618 0-12 5.316-12 12.001 0 7 6.001 14.161 10.376 19.194 0.016 0.020 0.718 0.805 1.586 0.805 0.002 0 0.073 0 0.077 0 0.867 0 1.57-0.785 1.586-0.805 4.377-5.033 10.377-12.193 10.377-19.194 0-6.685-5.383-12.001-12.002-12.001zM16.117 29.883c-0.021 0.020-0.082 0.064-0.135 0.098-0.010-0.027-0.084-0.086-0.129-0.133-3.665-4.217-9.853-11.334-9.853-17.847 0-5.514 4.487-10.001 10-10.001 5.516 0 10.002 4.487 10.002 10.002 0 6.512-6.188 13.629-9.885 17.881z"></path>
</symbol>
<symbol id="icon-viber-svgrepo-com" viewBox="0 0 32 32">
<path d="M19.047 0h-6.095c-6.384 0-11.578 5.193-11.578 11.575v5.491c0 4.753 2.921 9.025 7.313 10.765v3.559c0 0.241 0.142 0.459 0.363 0.557 0.079 0.035 0.163 0.052 0.247 0.052 0.148 0 0.295-0.054 0.409-0.158l3.534-3.201h5.808c6.384 0 11.578-5.193 11.578-11.575v-5.491c0-6.383-5.194-11.575-11.578-11.575zM29.406 17.066c0 5.711-4.647 10.357-10.359 10.357h-6.043c-0.151 0-0.297 0.056-0.409 0.158l-2.689 2.436v-2.608c0-0.258-0.163-0.489-0.406-0.574-4.13-1.461-6.906-5.386-6.906-9.769v-5.491c0-5.711 4.647-10.357 10.359-10.357h6.095c5.712 0 10.359 4.646 10.359 10.357v5.491z"></path>
<path d="M24.053 18.582l-3.745-2.433c-0.41-0.266-0.897-0.357-1.374-0.258-0.478 0.101-0.889 0.383-1.155 0.794l-0.176 0.271c-1.621-0.536-3.408-1.22-4.478-4.318l0.443-0.385c0.761-0.661 0.84-1.818 0.179-2.58l-2.93-3.371c-0.221-0.254-0.606-0.28-0.86-0.060l-1.84 1.599c-1.614 1.403-0.86 3.478-0.612 4.16 0.011 0.030 0.024 0.060 0.040 0.088 0.064 0.115 1.592 2.841 4.059 5.354 2.477 2.523 6.95 4.854 7.087 4.921 0.511 0.331 1.085 0.491 1.654 0.491 0.998 0 1.977-0.489 2.561-1.386l1.327-2.044c0.183-0.283 0.102-0.661-0.18-0.844zM21.883 20.806c-0.549 0.846-1.684 1.086-2.58 0.508-0.044-0.023-4.488-2.337-6.829-4.723-2.189-2.23-3.642-4.707-3.84-5.053-0.483-1.353-0.397-2.185 0.283-2.776l1.38-1.199 2.53 2.91c0.225 0.258 0.199 0.636-0.059 0.86l-0.748 0.65c-0.182 0.158-0.254 0.409-0.183 0.639 1.275 4.143 3.754 4.956 5.564 5.55l0.264 0.087c0.264 0.089 0.553-0.013 0.704-0.246l0.432-0.665c0.089-0.138 0.225-0.231 0.384-0.264s0.321-0.002 0.459 0.087l3.235 2.101-0.996 1.534z"></path>
<path d="M17.391 9.901c-0.324-0.093-0.661 0.095-0.753 0.419s0.096 0.661 0.419 0.753c0.908 0.258 1.631 0.983 1.887 1.892 0.076 0.268 0.32 0.444 0.586 0.444 0.055 0 0.11-0.007 0.166-0.023 0.324-0.091 0.512-0.428 0.421-0.752-0.37-1.313-1.415-2.36-2.726-2.733z"></path>
<path d="M22.028 13.54c0.055 0 0.11-0.007 0.166-0.023 0.324-0.091 0.512-0.428 0.421-0.752-0.719-2.549-2.748-4.582-5.295-5.307-0.324-0.093-0.661 0.096-0.753 0.42s0.096 0.661 0.419 0.753c2.143 0.609 3.85 2.321 4.455 4.466 0.076 0.268 0.32 0.444 0.586 0.444z"></path>
<path d="M17.058 4.62c-0.324-0.093-0.661 0.095-0.753 0.42-0.092 0.324 0.096 0.661 0.419 0.753 3.631 1.033 6.524 3.932 7.549 7.566 0.076 0.268 0.32 0.444 0.586 0.444 0.055 0 0.11-0.007 0.166-0.023 0.324-0.091 0.512-0.428 0.421-0.752-1.139-4.038-4.353-7.26-8.388-8.408z"></path>
</symbol>
<symbol id="icon-Vector" viewBox="0 0 42 32">
<path fill="#fff" style="fill: var(--color1, #fff); stroke: var(--color1, #fff)" stroke="#fff" stroke-linejoin="miter" stroke-linecap="butt" stroke-miterlimit="4" stroke-width="0.64" d="M6.263 15.205l-0.22-0.21-3.307 3.132 11.651 11.114 24.477-23.351-3.285-3.134-21.192 20.197-8.124-7.75z"></path>
</symbol>
<symbol id="icon-icon-send" viewBox="0 0 32 32">
<path d="M32 0l-32 18 10.227 3.788 15.773-14.788-11.998 16.186 0.010 0.004-0.012-0.004v8.814l5.735-6.691 7.265 2.691 5-28z"></path>
</symbol>
<symbol id="icon-person-black-18dp-1" viewBox="0 0 32 32">
<path d="M16 16c2.947 0 5.333-2.387 5.333-5.333s-2.387-5.333-5.333-5.333c-2.947 0-5.333 2.387-5.333 5.333s2.387 5.333 5.333 5.333zM16 18.667c-3.56 0-10.667 1.787-10.667 5.333v1.333c0 0.733 0.6 1.333 1.333 1.333h18.667c0.733 0 1.333-0.6 1.333-1.333v-1.333c0-3.547-7.107-5.333-10.667-5.333z"></path>
</symbol>
<symbol id="icon-phone-black-18dp-1" viewBox="0 0 32 32">
<path d="M24.882 19.773l-3.268-0.373c-0.785-0.090-1.557 0.18-2.11 0.733l-2.367 2.367c-3.641-1.853-6.626-4.825-8.478-8.478l2.38-2.38c0.553-0.553 0.823-1.325 0.733-2.11l-0.373-3.242c-0.154-1.299-1.248-2.277-2.56-2.277h-2.226c-1.454 0-2.663 1.209-2.573 2.663 0.682 10.987 9.469 19.761 20.443 20.443 1.454 0.090 2.663-1.119 2.663-2.573v-2.226c0.013-1.3-0.965-2.393-2.264-2.547z"></path>
</symbol>
</defs>
</svg>
